<svg xmlns="http://www.w3.org/2000/svg" viewBox="0 0 263.89 308.7"><defs><style>.cls-1{fill:#fcfaf1;}</style></defs><g id="Ebene_2" data-name="Ebene 2"><g id="Ebene_1-2" data-name="Ebene 1"><path class="cls-1" d="M180.45,287.52H89.76a22,22,0,0,1-14.93-5.9L29.7,242.83a23.81,23.81,0,0,1-7.46-17.39l0-.56,20-178c.15-12.75,10.17-23.07,22.46-23.07H199.18c12.29,0,22.31,10.32,22.46,23.07l20,179v.28a23.75,23.75,0,0,1-6.38,16.31l-.15.15-38.67,37.92A22.11,22.11,0,0,1,180.45,287.52Zm-144-52.06,45.12,38.78a12,12,0,0,0,8.18,3.28h90.69a12,12,0,0,0,8.78-3.89l.15-.15L228,235.57a14,14,0,0,0,3.61-9.15l-20-178.93v-.28c0-7.37-5.59-13.37-12.46-13.37H64.71c-6.87,0-12.46,6-12.46,13.37l0,.56-20,177.93A13.75,13.75,0,0,0,36.46,235.46Z"/><path class="cls-1" d="M190.75,308.7H80.8A26,26,0,0,1,63.39,302L8.77,252.72A26.72,26.72,0,0,1,0,232.91l0-.48L20,26.27A26.39,26.39,0,0,1,46.18,0H217.72a26.38,26.38,0,0,1,26.17,26.27l20,207.25v.24a26.54,26.54,0,0,1-7.5,18.59l-47,48.42A26.18,26.18,0,0,1,190.75,308.7ZM10,233.13a16.66,16.66,0,0,0,5.47,12.16l54.62,49.27A16,16,0,0,0,80.8,298.7h110a16.12,16.12,0,0,0,11.49-4.89l47-48.43a16.6,16.6,0,0,0,4.68-11.4l-20-207.22v-.24A16.37,16.37,0,0,0,217.72,10H46.18A16.37,16.37,0,0,0,30,26.52L30,27Z"/><path class="cls-1" d="M72.13,168.34c-2.59-14.63,1.35-30.75,10.38-43.47a64.55,64.55,0,0,1,16.7-16.42,58.28,58.28,0,0,1,21.62-9.17,59.5,59.5,0,0,1,11.66-1.1c1,0,1.94,0,2.91.06l2.89.19c1,.08,1.94.21,2.9.32s1.93.31,2.88.47a64.71,64.71,0,0,1,21.23,8.26,65.45,65.45,0,0,1,17,14.68,61.65,61.65,0,0,1,10.94,20,55.14,55.14,0,0,1,2.42,11.45l.14,1.47c0,.49.06,1,.08,1.5.07,1,0,2,0,3a42.88,42.88,0,0,1-.6,6.07,45.5,45.5,0,0,1-10.48,22.08,47.75,47.75,0,0,1-20.49,14.05,45.89,45.89,0,0,1-12.38,2.52c-1.06.07-2.1.11-3.17.09l-3.28-.17a11.15,11.15,0,0,1-1.63-.19l-1.62-.25c-.54-.09-1.09-.15-1.62-.28L139,203.1a37.77,37.77,0,0,1-11.88-5.41,40.13,40.13,0,0,1-9.36-8.93,38.09,38.09,0,0,1-5.84-11.39,35.75,35.75,0,0,1-1.76-12.49,13.87,13.87,0,0,1,0-1.57l.17-1.6c.07-.54.1-1.07.2-1.6l.35-1.57c.12-.52.21-1,.37-1.55l.5-1.52c.18-.51.31-1,.53-1.5l.65-1.45a29.65,29.65,0,0,1,7.43-9.91,28.24,28.24,0,0,1,10.45-5.79A25.85,25.85,0,0,1,142.3,136v1.33a27.61,27.61,0,0,0-9.69,3.51,25.56,25.56,0,0,0-7.24,6.49,24,24,0,0,0-4.07,8.3l-.28,1.1a10.29,10.29,0,0,0-.19,1.11l-.18,1.1c-.06.37-.05.75-.08,1.12l-.06,1.11c0,.36,0,.74,0,1.11l0,1.1c0,.36.1.76.14,1.13.12.76.16,1.52.33,2.27l.51,2.21a29,29,0,0,0,1.54,4.21l.45,1c.16.34.36.65.54,1l.54,1,.27.49.32.45,1.26,1.81,1.41,1.69a28.3,28.3,0,0,0,14.63,8.66l1,.25c.34.08.7.1,1,.16l1.06.16a5.38,5.38,0,0,0,1.06.12l2.13.1c.36,0,.75,0,1.12,0s.75,0,1.13,0c.75-.06,1.5-.08,2.24-.18l1.12-.13,1.11-.19c.75-.11,1.47-.3,2.21-.43s1.47-.34,2.18-.58a36.47,36.47,0,0,0,15.52-9.27,38.7,38.7,0,0,0,9.34-15.95c.25-.75.41-1.53.62-2.29s.35-1.56.49-2.34.28-1.58.35-2.38c.05-.41.1-.8.14-1.21l.07-1.24a50.18,50.18,0,0,0-.39-10,43.51,43.51,0,0,0-22.9-32.61,42.13,42.13,0,0,0-19.84-4.69c-.85,0-1.69,0-2.53.09s-1.68.12-2.52.2l-2.52.33c-.84.1-1.67.29-2.5.43a79.77,79.77,0,0,0-9.71,2.47c-1.57.54-3.13,1.07-4.66,1.69-.38.15-.77.28-1.15.45l-1.13.49c-.76.32-1.52.62-2.25,1a73.85,73.85,0,0,0-8.67,4.67,69,69,0,0,0-15,12.89,72.65,72.65,0,0,0-6.06,8l-1.35,2.15c-.44.72-.82,1.48-1.26,2.21s-.8,1.5-1.19,2.26L80.26,147l-.53,1.17a83.45,83.45,0,0,0-6.26,20.13Z"/></g></g></svg>